<?xml version="1.0" encoding="UTF-8" standalone="no"?>
<!-- Created with Inkscape (http://www.inkscape.org/) -->
<svg id="svg3573" xmlns:rdf="http://www.w3.org/1999/02/22-rdf-syntax-ns#" xmlns="http://www.w3.org/2000/svg" height="25" width="25" version="1.1" xmlns:cc="http://creativecommons.org/ns#" xmlns:dc="http://purl.org/dc/elements/1.1/">
	<metadata id="metadata3578">
		<rdf:RDF>
			<cc:Work rdf:about="">
				<dc:format>image/svg+xml</dc:format>
				<dc:type rdf:resource="http://purl.org/dc/dcmitype/StillImage"/>
				<dc:title/>
			</cc:Work>
		</rdf:RDF>
	</metadata>
	<g id="layer1" transform="translate(-2.5922467,-3.24681)">
		<g id="g3193" transform="translate(2.5922467,-236.75319)">
			<path id="path3195" fill="#75c144" d="M25,252.5c0,6.9-5.597,12.5-12.5,12.5s-12.5-5.6-12.5-12.5,5.597-12.5,12.5-12.5,12.5,5.603,12.5,12.5z"/>
		</g>
		<path id="path3197" fill="#FFF" d="m18.533,18.41c-0.619,0-1.186,0.234-1.609,0.625l-4.576-2.337c0.02-0.117,0.033-0.239,0.033-0.365,0-0.064-0.008-0.137-0.014-0.205l4.623-2.354c0.416,0.352,0.949,0.566,1.543,0.566,1.32,0,2.393-1.074,2.393-2.396s-1.072-2.393-2.393-2.393c-1.322,0-2.396,1.071-2.396,2.393,0,0.071,0.006,0.144,0.014,0.215l-4.617,2.356c-0.416-0.357-0.957-0.572-1.549-0.572-1.322,0-2.393,1.067-2.393,2.389s1.07,2.396,2.393,2.396c0.533,0,1.021-0.176,1.422-0.469l4.736,2.415c0,0.039-0.006,0.085-0.006,0.124,0,1.323,1.074,2.396,2.396,2.396,1.32,0,2.393-1.072,2.393-2.396,0-1.321-1.072-2.388-2.393-2.388z"/>
	</g>
</svg>
